<svg xmlns="http://www.w3.org/2000/svg" xmlns:xlink="http://www.w3.org/1999/xlink" width="32" height="32" viewBox="0 0 32 32"><defs><clipPath id="a"><circle cx="15" cy="15" r="15" fill="#272727"/></clipPath><clipPath id="c"><rect width="32" height="32"/></clipPath></defs><g id="b" clip-path="url(#c)"><path d="M15,0A15,15,0,1,1,0,15,15,15,0,0,1,15,0Z" transform="translate(1 1)" fill="#f8f4f1"/><g transform="translate(1 1)"><g transform="translate(0 0)" clip-path="url(#a)"><path d="M.38-16.719q.067-.336.09-.548a.67.67,0,0,0-.157-.459q.09-.358.145-.56a1.493,1.493,0,0,0,.011-.56,2.484,2.484,0,0,1,.615-.985,4.444,4.444,0,0,1,.906-.683,6.415,6.415,0,0,1,1.03-.47q.537-.19,1.007-.325a.079.079,0,0,0-.09-.09q-.09,0-.045-.112a16.5,16.5,0,0,0,2.428-.649q1.22-.425,2.5-.761a13.308,13.308,0,0,1,2.619-.414,8.4,8.4,0,0,1,2.82.347,2.327,2.327,0,0,0,.246.515q.157.246.325.481t.3.459a1.1,1.1,0,0,1,.157.47,2.371,2.371,0,0,1,.436.526.99.99,0,0,1,.056.75q-.246.179-.515.358t-.56.336a6.59,6.59,0,0,0-2.014-.179q-1.007.067-1.813.157a.729.729,0,0,0-.582-.257,3.071,3.071,0,0,0-.7.112q-.369.1-.727.2A1.622,1.622,0,0,1,8.191-19a1.315,1.315,0,0,1-.649.3q-.4.078-.85.123a.139.139,0,0,0,.045.157q.067.045.022.179a.808.808,0,0,0,.425.28q.269.078.548.145a2.016,2.016,0,0,1,.5.19.586.586,0,0,1,.291.392,1.384,1.384,0,0,1,.694.213,1.928,1.928,0,0,1,.492.459,1.8,1.8,0,0,1,.291.571,1.471,1.471,0,0,1,.067.548q.09.224.19.179t.235.112a1.809,1.809,0,0,0,.414.7,2.913,2.913,0,0,1,.5.795q.045.671.078,1.209a2.253,2.253,0,0,1-.19,1.052,5.578,5.578,0,0,1-1.1,1.768A8.476,8.476,0,0,1,8.582-8.248a12.737,12.737,0,0,1-1.914,1.03,17.444,17.444,0,0,1-1.992.727.507.507,0,0,0-.213,0q-.123.022-.056-.134a.915.915,0,0,1-.459.224,2.688,2.688,0,0,1-.56.034q-.3-.011-.6-.034a2.617,2.617,0,0,0-.593.022,4.7,4.7,0,0,1-.325-.358,1.458,1.458,0,0,1-.235-.425.118.118,0,0,1-.1-.145q.011-.123-.1-.123a.312.312,0,0,1,.022-.134l.045-.09q.09-.067.078-.1a.143.143,0,0,0-.067-.067A1.018,1.018,0,0,1,1.4-7.9a.094.094,0,0,1-.034-.112.778.778,0,0,0,.078-.481q-.034-.28-.056-.571a1.656,1.656,0,0,1,.045-.548.732.732,0,0,1,.38-.436,5.547,5.547,0,0,0,1.735-.09,8.485,8.485,0,0,0,1.544-.492,14.984,14.984,0,0,0,1.388-.683q.66-.369,1.287-.683a.951.951,0,0,1,.213-.38q.145-.157.3-.3a2.894,2.894,0,0,0,.291-.313,1.13,1.13,0,0,0,.2-.414.2.2,0,0,0,0-.134.222.222,0,0,0-.067-.078.84.84,0,0,1-.09-.078.182.182,0,0,1-.045-.134q-.067-.022-.123-.045a.275.275,0,0,0-.1-.022,8.146,8.146,0,0,0-1.231-.492,5.951,5.951,0,0,1-1.1-.448.592.592,0,0,1-.537.09q-.269-.09-.649-.179a16.128,16.128,0,0,1-1.779-.179,6.852,6.852,0,0,1-1.623-.47.981.981,0,0,0-.112-.235q-.067-.1-.313-.056a4.69,4.69,0,0,0-.325-.414A2.376,2.376,0,0,1,.38-16.719Zm13.361,6,.034-.134q.011-.045-.078-.112-.045-.157.067-.2l.224-.09a11.353,11.353,0,0,1,.459-2.451q.347-1.108.761-2.16t.828-2.115a15.1,15.1,0,0,0,.683-2.316,2.45,2.45,0,0,0,.481-.694q.19-.4.38-.817a5.556,5.556,0,0,1,.448-.795,1.989,1.989,0,0,1,.7-.627,1.793,1.793,0,0,1,.369.078q.168.056.325.123a2.214,2.214,0,0,0,.336.112,1.564,1.564,0,0,0,.38.045,1.245,1.245,0,0,1,.157.257.886.886,0,0,0,.179.257l.4-.067a2.481,2.481,0,0,1,.515.615,2.568,2.568,0,0,1,.313.761,1.46,1.46,0,0,1-.022.761.938.938,0,0,1-.515.571.447.447,0,0,1,0,.2.618.618,0,0,1-.056.123.216.216,0,0,0-.034.112.245.245,0,0,0,.09.145,2.271,2.271,0,0,0-.448.5,3.471,3.471,0,0,0-.336.638,4.655,4.655,0,0,0-.213.671,4.183,4.183,0,0,0-.1.627A9.213,9.213,0,0,1,21.6-17.95q.873-.582,1.522-1.1.515-.358.906-.683t.795-.6q.4-.28.839-.537t.884-.571a.51.51,0,0,1,.347-.045,1.357,1.357,0,0,1,.235.112q.022-.157-.067-.19t-.067-.213a3.828,3.828,0,0,0,.683-.269q.3-.157.638-.291.224.246.448.526a.8.8,0,0,0,.6.3,1.133,1.133,0,0,0,.325.436q.19.145.38.28a1.341,1.341,0,0,1,.325.325,1.155,1.155,0,0,1,.157.593q-.09.179-.213.392a2.333,2.333,0,0,0-.213.526,9.3,9.3,0,0,1-1.085.862q-.548.369-1.119.7t-1.164.694a12.372,12.372,0,0,0-1.2.828,1.523,1.523,0,0,1-.336.358q-.2.157-.414.3t-.4.3a1.158,1.158,0,0,0-.3.38.964.964,0,0,0-.157.011q-.067.011-.157.034a.744.744,0,0,1-.257.291.6.6,0,0,0-.235.291,3.164,3.164,0,0,0,1.052,1.32,4.431,4.431,0,0,0,1.455.649,7.973,7.973,0,0,0,1.746.224q.94.022,1.947.022.112-.022.1-.123t.123-.078a2.171,2.171,0,0,1,.56.269,4.673,4.673,0,0,1,.425.336q.2.179.392.369t.436.392a2.71,2.71,0,0,1-.615,1.712,4.08,4.08,0,0,1-1.511,1.063,15.291,15.291,0,0,1-2.26-.067,7.3,7.3,0,0,1-1.9-.492.244.244,0,0,1-.123-.134.63.63,0,0,0-.1-.157.622.622,0,0,0-.4-.09.767.767,0,0,1-.38-.045,5.008,5.008,0,0,1-.66-.4q-.459-.313-.839-.582-.47-.38-.906-.75a4.99,4.99,0,0,1-.772-.817.211.211,0,0,0-.19-.112.45.45,0,0,1-.235-.067,4.652,4.652,0,0,0-1.309,1.22q-.526.727-1.018,1.477a15.651,15.651,0,0,1-1.041,1.41A3.632,3.632,0,0,1,15.89-6.335a1.055,1.055,0,0,1-.425-.078,1.542,1.542,0,0,1-.336-.2q-.157-.123-.313-.235a.971.971,0,0,0-.358-.157,1.456,1.456,0,0,0-.123-.593q-.123-.28-.246-.515a2.079,2.079,0,0,1-.179-.459.5.5,0,0,1,.123-.448,4,4,0,0,0-.47-.336.388.388,0,0,0,.145-.291.735.735,0,0,0-.078-.269,1.254,1.254,0,0,1-.1-.28.43.43,0,0,1,.078-.325q.09-.022.078-.09A.107.107,0,0,1,13.741-10.721Z" transform="translate(-0.834 30.522)" fill="#1b1b1a"/></g></g></g></svg>