<svg xmlns="http://www.w3.org/2000/svg" xmlns:xlink="http://www.w3.org/1999/xlink" width="296" height="43" viewBox="0 0 296 43"><defs><clipPath id="b"><rect width="296" height="43"/></clipPath></defs><g id="a" clip-path="url(#b)"><path d="M-142.522-24.224q.161-.806.215-1.316a1.608,1.608,0,0,0-.376-1.1q.215-.859.349-1.343a3.583,3.583,0,0,0,.027-1.343,5.961,5.961,0,0,1,1.477-2.363,10.665,10.665,0,0,1,2.175-1.638,15.4,15.4,0,0,1,2.471-1.128q1.289-.457,2.417-.779a.19.19,0,0,0-.215-.215q-.215,0-.107-.269a39.6,39.6,0,0,0,5.828-1.558q2.927-1.021,5.989-1.826a31.938,31.938,0,0,1,6.284-.994,20.16,20.16,0,0,1,6.768.833,5.584,5.584,0,0,0,.591,1.235q.376.591.779,1.155t.725,1.1a2.634,2.634,0,0,1,.376,1.128,5.69,5.69,0,0,1,1.047,1.262,2.375,2.375,0,0,1,.134,1.8q-.591.43-1.235.859t-1.343.806a15.815,15.815,0,0,0-4.834-.43q-2.417.161-4.351.376a1.75,1.75,0,0,0-1.4-.618,7.37,7.37,0,0,0-1.692.269q-.886.242-1.746.483a3.892,3.892,0,0,1-1.611.134,3.156,3.156,0,0,1-1.558.725q-.967.188-2.041.3a.332.332,0,0,0,.107.376q.161.107.054.43a1.94,1.94,0,0,0,1.021.671q.645.188,1.316.349a4.839,4.839,0,0,1,1.208.457,1.407,1.407,0,0,1,.7.94,3.322,3.322,0,0,1,1.665.51,4.628,4.628,0,0,1,1.182,1.1,4.317,4.317,0,0,1,.7,1.37,3.53,3.53,0,0,1,.161,1.316q.215.537.457.43t.564.269a4.342,4.342,0,0,0,.994,1.692,6.992,6.992,0,0,1,1.208,1.907q.107,1.611.188,2.9a5.406,5.406,0,0,1-.457,2.524A13.386,13.386,0,0,1-118.943-7.2a20.341,20.341,0,0,1-3.894,3.3,30.568,30.568,0,0,1-4.592,2.471,41.864,41.864,0,0,1-4.78,1.746,1.218,1.218,0,0,0-.51,0q-.3.054-.134-.322a2.2,2.2,0,0,1-1.1.537A6.45,6.45,0,0,1-135.3.618q-.725-.027-1.45-.081a6.28,6.28,0,0,0-1.423.054,11.267,11.267,0,0,1-.779-.859,3.5,3.5,0,0,1-.564-1.021.284.284,0,0,1-.242-.349q.027-.3-.242-.3a.748.748,0,0,1,.054-.322l.107-.215q.215-.161.188-.242a.342.342,0,0,0-.161-.161,2.444,2.444,0,0,1-.269-.188.225.225,0,0,1-.081-.269,1.868,1.868,0,0,0,.188-1.155q-.081-.671-.134-1.37A3.975,3.975,0,0,1-140-7.17a1.756,1.756,0,0,1,.913-1.047,13.313,13.313,0,0,0,4.163-.215,20.364,20.364,0,0,0,3.706-1.182,35.959,35.959,0,0,0,3.33-1.638q1.584-.886,3.088-1.638a2.283,2.283,0,0,1,.51-.913q.349-.376.725-.725a6.946,6.946,0,0,0,.7-.752,2.711,2.711,0,0,0,.483-.994.484.484,0,0,0,0-.322.533.533,0,0,0-.161-.188,2.017,2.017,0,0,1-.215-.188.438.438,0,0,1-.107-.322q-.161-.054-.3-.107a.66.66,0,0,0-.242-.054,19.548,19.548,0,0,0-2.954-1.182,14.282,14.282,0,0,1-2.632-1.074,1.421,1.421,0,0,1-1.289.215q-.645-.215-1.558-.43a38.7,38.7,0,0,1-4.27-.43A16.444,16.444,0,0,1-140-21.484a2.353,2.353,0,0,0-.269-.564q-.161-.242-.752-.134a11.256,11.256,0,0,0-.779-.994A5.7,5.7,0,0,1-142.522-24.224Zm48.179,10.151a3.055,3.055,0,0,0-.645.779q-.269.457-.537.94a11.19,11.19,0,0,1-.591,1.128,4.136,4.136,0,0,1-.806.967A6.806,6.806,0,0,1-97.458-9a5.546,5.546,0,0,1-.859,1.047,12.876,12.876,0,0,1-2.524,4.673,2.613,2.613,0,0,1-.3.94q-.242.457-.51.886-.107.161-.215.349t-.161.3l-.107.537a4.221,4.221,0,0,1-.591.752l-.591.591a3.146,3.146,0,0,1-.376.43l-.806.322a5.176,5.176,0,0,1-4.78-4.189l.054-.537a5.2,5.2,0,0,0,.188-.564q.081-.3.188-.618.215-.752.51-1.5a3.9,3.9,0,0,1,.886-1.343,10.2,10.2,0,0,1,.483-1.208q.376-.833,1.289-2.5.752-1.289,1.182-2.041t.7-1.182a7.653,7.653,0,0,0-1.289-1.558q-.7-1.343-1.208-2.578a19.638,19.638,0,0,1-.779-2.2,8.592,8.592,0,0,0-.161-1.182q-.107-.483-.215-1.021-.161-.591-.269-1.182a6.9,6.9,0,0,1-.107-1.235,1.715,1.715,0,0,1-.322-.752l.107-.537a1.774,1.774,0,0,0,.054-.994q-.107-.618-.269-1.262-.107-.537-.242-1.182a4.469,4.469,0,0,1-.081-1.289,3.14,3.14,0,0,1,.349-1.208,2.636,2.636,0,0,1,.994-.994l.913-.054q.483.269.94.51t.886.51q.591.269,1.128.537a8.086,8.086,0,0,1,1.128.7l.376.752.7.591v.591a2.549,2.549,0,0,1,.054.591q0,.7.215.859l.215.645a6.083,6.083,0,0,0,.161,1.423q.161.671.322,1.262t.322,1.235a3.614,3.614,0,0,1,.054,1.4,2.045,2.045,0,0,0,.537-.376.842.842,0,0,1,.215-.161.842.842,0,0,0,.215-.161l3.169-4.3-.107-.537,1.128-1.074q.43-.43.833-.806a4.014,4.014,0,0,0,.671-.806l.591-.43a7.3,7.3,0,0,1,4.888-3.33l.752-.107.215.7A2.346,2.346,0,0,0-85.83-31.8a16.127,16.127,0,0,0,1.423.913l.483.322a2.061,2.061,0,0,1,.269.806,2,2,0,0,1-.054.483l.215.537a4.592,4.592,0,0,1-1.047,1.88q-.618.591-1.208,1.074-.483.43-.886.779a2.261,2.261,0,0,0-.618.886l-.376.43a2.939,2.939,0,0,0-1.45,1.719l-.161.645h-.645q-.054,0-.242.188a4.351,4.351,0,0,0-.564.94,6.2,6.2,0,0,1-.537.7l-.269.269a2.657,2.657,0,0,1-.134.4q-.081.188-.188.457a4.523,4.523,0,0,0-.859,1.047q-.161.349-.376.779t-.4.833a3.02,3.02,0,0,1-.618.833Zm15.845,4.3a.97.97,0,0,0-.7.564q-.215.457-.4.94t-.376.886a.6.6,0,0,1-.564.4,1.549,1.549,0,0,1-.3.752q-.242.322-.457.671a2.806,2.806,0,0,0-.322.752,1.494,1.494,0,0,0,.107.94,1.406,1.406,0,0,0-.537.913q-.107.591-.242,1.128a2.2,2.2,0,0,1-.457.913,1.386,1.386,0,0,1-1.182.322q-.161.215-.054.269t.161.376A1.248,1.248,0,0,0-84.7.134a1.736,1.736,0,0,1-.725.242A3.544,3.544,0,0,1-87.119-.752a9.767,9.767,0,0,1-1.182-1.8q-.51-.994-.913-2.014t-.779-1.772a2.535,2.535,0,0,0,.054-1.155,2.355,2.355,0,0,0-.376-.94q2.632-5.586,5.747-11.924t5.908-12.515q1.235.483,2.444,1.1a12.555,12.555,0,0,1,2.2,1.423,8.307,8.307,0,0,1,1.692,1.853,5.913,5.913,0,0,1,.913,2.336q-.107.322-.242.242t-.242.081a1.318,1.318,0,0,1,.242.376.436.436,0,0,1,0,.215,1.274,1.274,0,0,0-.027.3,1.245,1.245,0,0,0,.161.51q-.215-.054-.3.054t-.349,0a1.814,1.814,0,0,1,.134.967,2.48,2.48,0,0,1-.242.671,3.478,3.478,0,0,0-.269.645,1.548,1.548,0,0,0,.054.886.328.328,0,0,0-.242.081,1.067,1.067,0,0,0-.134.161,1.067,1.067,0,0,1-.134.161.222.222,0,0,1-.242.027,13.065,13.065,0,0,1,.107,2.363q-.054,1.182-.081,2.39t.027,2.524a14.731,14.731,0,0,0,.376,2.712,9.072,9.072,0,0,0,3.088-2.9,16.956,16.956,0,0,0,1.88-3.975,28.54,28.54,0,0,0,1.1-4.727q.376-2.524.806-5.156a3.342,3.342,0,0,0,.752-1.182q.269-.7.483-1.477l.43-1.558a7.835,7.835,0,0,1,.537-1.423,3,3,0,0,1,1.37.51,9.918,9.918,0,0,1,1.047.859,11.769,11.769,0,0,0,1.021.859,2.816,2.816,0,0,0,1.343.51q.645.913,1.182,1.772a4.955,4.955,0,0,1,.7,1.826,3.338,3.338,0,0,0-.4.967q-.134.537-.3,1.074a4.5,4.5,0,0,1-.43.994,2.394,2.394,0,0,1-.752.779q-.161,1.4-.4,2.551t-.483,2.283q-.242,1.128-.4,2.336a15.772,15.772,0,0,0-.107,2.659q-.43,1.235-.913,2.632t-.752,2.524a5.017,5.017,0,0,0-1.343,1.665q-.483.967-1.021,1.934-.215.215-.269.107t-.376-.161a.484.484,0,0,1,0,.322A.717.717,0,0,1-65.151-4a.434.434,0,0,0-.107.242.848.848,0,0,0,.081.43,4.255,4.255,0,0,0-1.343.913,10.265,10.265,0,0,1-1.262,1.074A3.819,3.819,0,0,1-69.395-.7a5.045,5.045,0,0,1-2.444-.376A20.672,20.672,0,0,1-75.732-4.78,17.611,17.611,0,0,1-78.5-9.775Zm48.447,5.264a8.609,8.609,0,0,1-.94,1.853,8.08,8.08,0,0,1-1.45,1.665A8.057,8.057,0,0,1-34.294.215a5.592,5.592,0,0,1-2.148.537A2.636,2.636,0,0,1-37.383.4a5.125,5.125,0,0,0-.51-.349q-.161-.107-.3-.188t-.242-.134l-.645-.269.215-.7a.827.827,0,0,0-.054-.671,4.09,4.09,0,0,0-.645-.671L-39.88-2.9a2.134,2.134,0,0,1-.269-.322l-.913-1.021,1.45-.376a3.413,3.413,0,0,0,1.8-.967,2.934,2.934,0,0,0,.349-1.987,4.436,4.436,0,0,0-1.8-.054q-.725.161-1.477.376-.967.269-1.96.457a11.722,11.722,0,0,1-2.175.188q-.43,0-.806-.027t-.806-.081l-.537-.107a1.432,1.432,0,0,0-.215-.671,2.017,2.017,0,0,1-.215-.188,4.454,4.454,0,0,1-.564-.725,1.456,1.456,0,0,1-.134-1.155,2.57,2.57,0,0,1-.322-.967,6.019,6.019,0,0,0-.483,1.343l-.215.537-.537.107a.362.362,0,0,0-.161.242,1.152,1.152,0,0,0-.054.3l-.269.913a2.017,2.017,0,0,1-.215.188,2.017,2.017,0,0,0-.215.188,9.733,9.733,0,0,1-.269.967q-.161.483-.322.913-.269.7-.457,1.37A3.708,3.708,0,0,0-51.8-2.148l-.215.591a2.244,2.244,0,0,1-.591.51q-.322.188-.645.349a.933.933,0,0,1-.3.188q-.188.081-.3.134l-.161.591-.645.107q-.591.107-.833.161a2.622,2.622,0,0,1-.564.054l-.537-.054Q-57.175,0-57.5-.3a5.144,5.144,0,0,0-.752-.564,2.684,2.684,0,0,1-.537-.967q-.054-.322-.107-.591a2.911,2.911,0,0,1-.134-.537.537.537,0,0,0-.134-.322l-.7-.645.591-.483.054-.913q1.074-2.739,2.283-5.264t2.5-5.156q.43-.859.833-1.719t.833-1.719a1.19,1.19,0,0,1-.054-.376,1.319,1.319,0,0,1,.107-.483q.591-.913.967-1.638T-51-23.149q.43-.913.886-1.772a12.919,12.919,0,0,1,1.155-1.772l.859-.376q.161-.054.376-.134a1.369,1.369,0,0,1,.483-.081l.806.107a8.04,8.04,0,0,0,2.632-1.96,27.252,27.252,0,0,0,2.31-3.035l.537-.752.7.43a3.121,3.121,0,0,0,.752.3q.483.134,1.021.3.967.215,1.826.483a3.344,3.344,0,0,1,1.4.806,6.359,6.359,0,0,1,.376,1.289,7.248,7.248,0,0,0,.161.859q.161.913.3,1.826t.188,2.041q.269.913.457,1.8t.349,1.8q.269,1.289.537,2.5a14.755,14.755,0,0,0,.7,2.283,1.571,1.571,0,0,1,.537.054,2.921,2.921,0,0,1,.564-.161q.3-.054.671-.107l.591-.054.215.537q.054.269.537.537a1.975,1.975,0,0,1,1.021.3,5.5,5.5,0,0,1,.591.51,1.683,1.683,0,0,0,.43.322l.806.322-.43.806A7.2,7.2,0,0,1-28.2-11.306a9.461,9.461,0,0,1-2.229,1.477q.054.322.081.618a2.742,2.742,0,0,0,.134.618q.161.913.269,1.88a9.216,9.216,0,0,1,0,1.987ZM-45.574-13.8q1.611-.107,2.927-.242t2.927-.457q-.376-1.611-.806-3.357t-.913-3.464l-.322.537a22.916,22.916,0,0,0-2.068,2.524A30.287,30.287,0,0,0-45.52-15.63l-.645.967q-.322.483-.591.967a3.759,3.759,0,0,1,.618-.054A2.871,2.871,0,0,0-45.574-13.8ZM-6.257-33.3a18.034,18.034,0,0,1,4.028.913A9.45,9.45,0,0,1,.779-30.669a31.563,31.563,0,0,1,1.638,2.9A15.023,15.023,0,0,1,3.6-24.519a13.984,13.984,0,0,1,.376,3.464,9.8,9.8,0,0,1-.779,3.6A12.391,12.391,0,0,1-.591-14.314,24.364,24.364,0,0,1-5.4-12.354q-2.578.752-5.344,1.289t-5.4,1.074q.054,1.235.027,2.6a17.742,17.742,0,0,1-.269,2.739,14.959,14.959,0,0,1-.725,2.659A9.44,9.44,0,0,1-18.4.376a7.738,7.738,0,0,0-1.88.242q-.967.242-1.719.4-.376-.215-.671-.4A1.915,1.915,0,0,0-23.5.376a1.439,1.439,0,0,0-.269-1.1q-.376-.564-.752-1.155a3.88,3.88,0,0,1-.51-1.128q-.134-.537.51-1.021A1.309,1.309,0,0,1-24.9-5a7.225,7.225,0,0,0,.671-1.772q.3-1.128.483-2.229a7.081,7.081,0,0,0,.081-2.014,1.638,1.638,0,0,0-1.074-1.343.217.217,0,0,1,.215-.107,1.014,1.014,0,0,0,.322-.054,1.309,1.309,0,0,1-.51-.913,2.153,2.153,0,0,0-.4-1.021,3.809,3.809,0,0,0,.161-.483q.054-.215.376-.161a4.8,4.8,0,0,1,.027-1.826,7.383,7.383,0,0,1,.564-1.638,10.457,10.457,0,0,1,.913-1.531q.537-.752,1.021-1.5.376-.054.457.107t.349-.054a3.081,3.081,0,0,0,.967-1.128,3.211,3.211,0,0,0,.269-1.343,21.655,21.655,0,0,1,.913-2.283,15.926,15.926,0,0,1,1.182-2.122,10.382,10.382,0,0,1,1.423-1.719,5.6,5.6,0,0,1,1.638-1.128,7.539,7.539,0,0,1,1.611-.994,9.6,9.6,0,0,1,2.095-.7,12.227,12.227,0,0,1,2.283-.269,7.272,7.272,0,0,1,2.122.242q.269.107.3-.107T-6.257-33.3Zm-2.2,12.837a15.892,15.892,0,0,1,2.874-.94A5.357,5.357,0,0,0-3.035-22.72a5.708,5.708,0,0,0-1.88-1.047A9.8,9.8,0,0,0-7.6-24.331a9.582,9.582,0,0,0-2.927.242,5.707,5.707,0,0,0-2.551,1.316q-.322.967-.537,1.531t-.591,1.37a.774.774,0,0,0,.349.4.774.774,0,0,1,.349.4,6.224,6.224,0,0,1,2.5-.725A7.206,7.206,0,0,0-8.459-20.464ZM3.2-24.17A4.729,4.729,0,0,1,4.4-26.1a9.019,9.019,0,0,1,1.826-1.37,12.642,12.642,0,0,1,2.068-.94q1.074-.376,2.041-.645,2.148-.913,4.592-1.746t5-1.477a29.846,29.846,0,0,1,5.237-.833,16.1,16.1,0,0,1,5.64.671,3.8,3.8,0,0,0,.483,1.021q.322.483.671.967t.618.94a2.355,2.355,0,0,1,.322.94,4.249,4.249,0,0,1,.859,1.047,2,2,0,0,1,.107,1.477q-.537.43-1.047.779a7.279,7.279,0,0,1-1.1.618,12.706,12.706,0,0,0-4.028-.322q-2.041.161-3.652.269a1.576,1.576,0,0,0-1.155-.483,4.91,4.91,0,0,0-1.4.215l-1.45.43a3.031,3.031,0,0,1-1.37.107,2.837,2.837,0,0,1-1.316.564q-.779.134-1.692.242-.054.269.107.349t.054.349a1.772,1.772,0,0,0,.833.537q.51.161,1.074.322a4.6,4.6,0,0,1,.994.4,1.265,1.265,0,0,1,.591.779,2.545,2.545,0,0,1,1.4.376,3.373,3.373,0,0,1,.967.913,4.068,4.068,0,0,1,.564,1.155,3.834,3.834,0,0,1,.188,1.1q.161.43.376.376t.483.215a3.313,3.313,0,0,0,.806,1.423A5.987,5.987,0,0,1,25.11-13.75q.107,1.343.161,2.39A4.981,4.981,0,0,1,24.9-9.238a11.759,11.759,0,0,1-2.229,3.545,17.753,17.753,0,0,1-3.223,2.766A22.594,22.594,0,0,1,15.6-.859,41.545,41.545,0,0,1,11.628.591a.873.873,0,0,0-.43,0q-.215.054-.107-.269a2.06,2.06,0,0,1-.94.483,4.372,4.372,0,0,1-1.1.081Q8.459.859,7.842.806A4.074,4.074,0,0,0,6.687.859Q6.311.483,6.016.134a2.438,2.438,0,0,1-.457-.886q-.269,0-.242-.269t-.188-.269q.322-.537.3-.618a.252.252,0,0,0-.161-.134,1.051,1.051,0,0,1-.242-.134.2.2,0,0,1-.054-.242,1.8,1.8,0,0,0,.161-.994q-.054-.564-.107-1.155A3.364,3.364,0,0,1,5.1-5.693a1.346,1.346,0,0,1,.779-.859,10.594,10.594,0,0,0,3.464-.134,15.573,15.573,0,0,0,3.088-.994,30.709,30.709,0,0,0,2.766-1.4q1.316-.752,2.6-1.343a2.206,2.206,0,0,1,.457-.806,6.373,6.373,0,0,1,.618-.591,4.605,4.605,0,0,0,.591-.591,1.869,1.869,0,0,0,.376-.806q.054-.376-.188-.457a.372.372,0,0,1-.242-.4l-.591-.161a11.358,11.358,0,0,0-2.31-.994,13.066,13.066,0,0,1-2.2-.886,1.38,1.38,0,0,1-1.1.161,12.923,12.923,0,0,0-1.316-.322q-1.826-.107-3.518-.376a12.824,12.824,0,0,1-3.25-.967,2.1,2.1,0,0,0-.269-.483q-.161-.215-.591-.107-.322-.43-.645-.833a6.356,6.356,0,0,1-.591-.886q.107-.645.161-1.1a1.124,1.124,0,0,0-.322-.886q.215-.7.322-1.128A2.946,2.946,0,0,0,3.2-24.17ZM57.82-30.239a2.173,2.173,0,0,1,.027.564q-.027.188-.054.349a2.127,2.127,0,0,0-.027.349,2.277,2.277,0,0,0,.107.564,6.158,6.158,0,0,1-2.6,2.5,13.016,13.016,0,0,1-3.2.967q-1.719.3-3.518.618a10.434,10.434,0,0,0-3.572,1.4,1.546,1.546,0,0,0-1.262,0,3.184,3.184,0,0,1-1.638.161,1.794,1.794,0,0,1-.806.457q-.483.134-.967.3a2.139,2.139,0,0,1,.188.994,1.663,1.663,0,0,0,.134.833,23.362,23.362,0,0,0,4.163-.054q2.283-.215,4.485-.269.054.269-.054.349t-.054.3a5.075,5.075,0,0,1,.752.671q.376.4.752.779a4.064,4.064,0,0,0,.779.618,1.491,1.491,0,0,0,.94.188,3.206,3.206,0,0,1,.3.94,1.96,1.96,0,0,1-.134,1.047q-.859.591-1.719,1.208a14.229,14.229,0,0,1-1.8,1.1,10.66,10.66,0,0,1-1.987.779,7.446,7.446,0,0,1-2.336.242h-.4a.65.65,0,0,1-.349-.161,1.8,1.8,0,0,1-1.208.161,1.8,1.8,0,0,0-1.208.161,3.17,3.17,0,0,0-1.423-.242,4.228,4.228,0,0,1-1.477-.188,18.587,18.587,0,0,0-1.558,2.417,21.206,21.206,0,0,0-1.235,2.739,16.508,16.508,0,0,0,3.035.215q1.208-.054,2.283-.188t2.2-.269a19.634,19.634,0,0,1,2.847-.081,7.12,7.12,0,0,1,2.551-.779,13.4,13.4,0,0,0,2.712-.618,1.744,1.744,0,0,1,.752.564q.322.4.618.752a5.03,5.03,0,0,0,.618.618,1.027,1.027,0,0,0,.806.215,1.13,1.13,0,0,1,.3.51q.081.3.134.564a1.17,1.17,0,0,0,.188.457.428.428,0,0,0,.457.134A8.091,8.091,0,0,1,53.5-2.6a7.188,7.188,0,0,1-2.39,1.423,16.854,16.854,0,0,1-2.981.752Q46.487-.161,44.5.215a1.335,1.335,0,0,1-.806-.027,1.945,1.945,0,0,0-.752-.134q-1.235.269-2.954.483A22.59,22.59,0,0,1,36.5.7,15.9,15.9,0,0,1,33.113.242a5.525,5.525,0,0,1-2.632-1.423,1.756,1.756,0,0,1-.564-.886,1.193,1.193,0,0,0-.725-.779A14.612,14.612,0,0,0,28.977-4.4q-.161-.859-.322-1.8t-.242-1.853a5.6,5.6,0,0,1,.081-1.665,3.369,3.369,0,0,1,.671-1.45,1.614,1.614,0,0,0,.349-1.4.372.372,0,0,0,.322-.3q.054-.242.43-.188.322-.967.7-1.826t.779-1.665q.4-.806.806-1.638t.779-1.853a4.431,4.431,0,0,1-1.1-1.531,8.457,8.457,0,0,1-.51-1.665q-.161-.833-.269-1.719a11.114,11.114,0,0,0-.376-1.8,4.606,4.606,0,0,1,1.316-1.316A7.827,7.827,0,0,1,34.08-28.9a14.543,14.543,0,0,1,1.987-.537q1.074-.215,2.256-.483,2.148-.7,3.84-1.074t3.33-.618q1.638-.242,3.411-.457t4.028-.645a1.356,1.356,0,0,0,.913.483q.215-.483.51-.3t.242-.3a5.109,5.109,0,0,0,1.37,1.531A8.873,8.873,0,0,0,57.82-30.239ZM57.6-9.829l.081-.322q.027-.107-.188-.269-.107-.376.161-.483l.537-.215A27.245,27.245,0,0,1,59.3-17q.833-2.659,1.826-5.183t1.987-5.076a36.225,36.225,0,0,0,1.638-5.559A5.879,5.879,0,0,0,65.9-34.482q.457-.967.913-1.96a13.332,13.332,0,0,1,1.074-1.907,4.773,4.773,0,0,1,1.692-1.5,4.3,4.3,0,0,1,.886.188q.4.134.779.3a5.314,5.314,0,0,0,.806.269,3.754,3.754,0,0,0,.913.107,2.987,2.987,0,0,1,.376.618,2.126,2.126,0,0,0,.43.618l.967-.161a5.954,5.954,0,0,1,1.235,1.477,6.162,6.162,0,0,1,.752,1.826,3.5,3.5,0,0,1-.054,1.826,2.252,2.252,0,0,1-1.235,1.37,1.072,1.072,0,0,1,0,.483,1.484,1.484,0,0,1-.134.3.518.518,0,0,0-.081.269.587.587,0,0,0,.215.349,5.451,5.451,0,0,0-1.074,1.208,8.329,8.329,0,0,0-.806,1.531,11.173,11.173,0,0,0-.51,1.611,10.038,10.038,0,0,0-.242,1.5,22.11,22.11,0,0,1,3.652-3.008q2.095-1.4,3.652-2.632,1.235-.859,2.175-1.638t1.907-1.45q.967-.671,2.014-1.289t2.122-1.37a1.224,1.224,0,0,1,.833-.107,3.257,3.257,0,0,1,.564.269q.054-.376-.161-.457t-.161-.51a9.188,9.188,0,0,0,1.638-.645q.725-.376,1.531-.7.537.591,1.074,1.262a1.914,1.914,0,0,0,1.45.725,2.719,2.719,0,0,0,.779,1.047q.457.349.913.671a3.218,3.218,0,0,1,.779.779,2.772,2.772,0,0,1,.376,1.423q-.215.43-.51.94a5.6,5.6,0,0,0-.51,1.262,22.314,22.314,0,0,1-2.6,2.068q-1.316.886-2.686,1.692T88.838-24.17a29.692,29.692,0,0,0-2.874,1.987,3.655,3.655,0,0,1-.806.859q-.483.376-.994.725t-.967.725a2.778,2.778,0,0,0-.725.913,2.313,2.313,0,0,0-.376.027q-.161.027-.376.081a1.786,1.786,0,0,1-.618.7,1.428,1.428,0,0,0-.564.7,7.592,7.592,0,0,0,2.524,3.169,10.633,10.633,0,0,0,3.491,1.558,19.133,19.133,0,0,0,4.189.537q2.256.054,4.673.054.269-.054.242-.3t.3-.188a5.211,5.211,0,0,1,1.343.645,11.214,11.214,0,0,1,1.021.806q.483.43.94.886t1.047.94a6.5,6.5,0,0,1-1.477,4.109A9.79,9.79,0,0,1,95.2-2.686a36.7,36.7,0,0,1-5.425-.161,17.522,17.522,0,0,1-4.565-1.182.586.586,0,0,1-.3-.322,1.512,1.512,0,0,0-.242-.376,1.493,1.493,0,0,0-.967-.215,1.84,1.84,0,0,1-.913-.107,12.018,12.018,0,0,1-1.584-.967q-1.1-.752-2.014-1.4-1.128-.913-2.175-1.8a11.976,11.976,0,0,1-1.853-1.96.506.506,0,0,0-.457-.269,1.08,1.08,0,0,1-.564-.161,11.164,11.164,0,0,0-3.142,2.927q-1.262,1.746-2.444,3.545a37.558,37.558,0,0,1-2.5,3.384A8.716,8.716,0,0,1,62.761.7,2.533,2.533,0,0,1,61.741.51a3.7,3.7,0,0,1-.806-.483q-.376-.3-.752-.564a2.33,2.33,0,0,0-.859-.376,3.5,3.5,0,0,0-.3-1.423q-.3-.671-.591-1.235a4.988,4.988,0,0,1-.43-1.1,1.2,1.2,0,0,1,.3-1.074,9.6,9.6,0,0,0-1.128-.806.931.931,0,0,0,.349-.7,1.763,1.763,0,0,0-.188-.645,3.009,3.009,0,0,1-.242-.671,1.032,1.032,0,0,1,.188-.779q.215-.054.188-.215A.258.258,0,0,1,57.6-9.829ZM110.618-3.76a4.168,4.168,0,0,1-.188,2.524,3.087,3.087,0,0,1-1.289,1.37,4.365,4.365,0,0,1-1.907.51,9.508,9.508,0,0,1-2.041-.107,8.349,8.349,0,0,1-.967-1.88q-.43-1.128-.806-2.336t-.671-2.39q-.3-1.182-.51-2.095a5.11,5.11,0,0,0,.349-1.477q.081-.833.107-1.692t.054-1.746a16.617,16.617,0,0,1,.134-1.692,25.171,25.171,0,0,1,1.1-4.3,29.576,29.576,0,0,0,1.155-4.243,1.442,1.442,0,0,0-.081-.913,1.169,1.169,0,0,1-.081-.806.42.42,0,0,1,.322-.3.431.431,0,0,0,.322-.349,2.108,2.108,0,0,0,.081-.967,1.423,1.423,0,0,1,.188-.913,14.168,14.168,0,0,0,.671-1.262,3.1,3.1,0,0,0,.3-1.746,5.99,5.99,0,0,0,.913-.752,8.9,8.9,0,0,1,.886-.779,5.725,5.725,0,0,1,1.021-.618,3.167,3.167,0,0,1,1.37-.269,2.778,2.778,0,0,1,.564,1.182l.269,1.289a5.326,5.326,0,0,0,.4,1.208,1.911,1.911,0,0,0,.913.886v1.074q0,.645.054,1.262a4.34,4.34,0,0,0,.242,1.128,1.054,1.054,0,0,0,.618.671q-.967,2.578-1.8,5.1a47.327,47.327,0,0,0-1.37,5.076,33.26,33.26,0,0,0-.671,5.129A22.325,22.325,0,0,0,110.618-3.76ZM147.41-25.835a24.3,24.3,0,0,0-2.9.188q-1.558.188-3.062.4-1.074.161-2.068.269t-1.8.161q-.376,1.182-.752,2.095t-.806,1.772q-.43.913-.779,1.853t-.671,2.014a16.682,16.682,0,0,0-.886,1.584,7.989,7.989,0,0,0-.564,1.638,5.974,5.974,0,0,0-.967,1.692,15.822,15.822,0,0,0-.483,1.531l-.215.645a1.424,1.424,0,0,0-.376.51.686.686,0,0,1-.269.349,3.033,3.033,0,0,1-.376,1.182,3.321,3.321,0,0,0-.161.51,1.838,1.838,0,0,0-.054.349q0,.537-.269.7a1.493,1.493,0,0,1,0,.564q-.054.3-.107.564a2.8,2.8,0,0,0-.107,1.021q.161.215.3.376a.951.951,0,0,1,.188.43,2.355,2.355,0,0,0,.483.269,4.418,4.418,0,0,0,.645.376l.483.537A2.938,2.938,0,0,1,131.35.215a3.293,3.293,0,0,1-2.739,1.021h-.645a1.3,1.3,0,0,1-.322-.43q-.43-.161-.7-.269a1.084,1.084,0,0,1-.483-.43q-.7-.322-1.128-.537L124.851-.7v-.645a3.429,3.429,0,0,1-.564-1.074,9.5,9.5,0,0,1-.3-1.182q-.107-.483-.242-.913a2.915,2.915,0,0,0-.349-.752,15.452,15.452,0,0,1,.591-5.264q.7-2.148,1.45-4.136.43-1.074.859-2.175a22.712,22.712,0,0,0,.752-2.283l.483-.537q.376-.859.618-1.423t.51-1.155q.161-.376.3-.725t.242-.618q-.322,0-.591.027t-.537.081q-.322.054-.591.081t-.537.027a1.885,1.885,0,0,1-.537-.054,3.078,3.078,0,0,1-1.289.269h-.537a1.509,1.509,0,0,1-.3-.027,1.245,1.245,0,0,0-.242-.027,1.935,1.935,0,0,0-.859.161h-1.772a1.688,1.688,0,0,0-.269.027,1.688,1.688,0,0,1-.269.027,4.384,4.384,0,0,1-.806-.081,3.064,3.064,0,0,1-.913-.349q-.645-.859-.859-.913l-.483-.645a3.475,3.475,0,0,0-.161-.618q-.107-.3-.215-.671-.215-.537-.4-1.155a5.109,5.109,0,0,1-.188-1.477,1.359,1.359,0,0,1,.215-.645q.161-.215.269-.376l.161-.806.7.054h1.5q1.719,0,3.491-.134t3.652-.3l2.175-.215q1.1-.107,2.283-.215.215-.483.43-.913l.537-.269a2.179,2.179,0,0,1,1.37.242,5.823,5.823,0,0,1,.671.564q1.182-.107,2.39-.242t2.444-.349q1.826-.269,3.679-.483a31.03,31.03,0,0,1,3.572-.215q.752,0,1.45.054a12.656,12.656,0,0,1,1.289.161l.537.376a2.02,2.02,0,0,0,.457.591q.3.269.618.537a12.39,12.39,0,0,1,1.289,1.4,3.172,3.172,0,0,1,.483,2.363,2.457,2.457,0,0,1-.645.752l-.483.645-.537-.054a2.05,2.05,0,0,0-.591.081q-.269.081-.537.188a4.473,4.473,0,0,1-.43.188,3.126,3.126,0,0,1-.483.134q-.483,0-.779-.027T147.41-25.835Z" transform="translate(143 41)" fill="#1b1b1a"/></g></svg>